<svg width="10" height="13" viewBox="0 0 10 13" fill="none" xmlns="http://www.w3.org/2000/svg">
<path d="M9.6875 4.5H0.3125C0.140625 4.5 0 4.63711 0 4.80469V5.78908C0 5.95665 0.140625 6.09376 0.3125 6.09376H4V8.98829V11.8828C4 12.0504 4.14062 12.1875 4.3125 12.1875H5.72917C5.90104 12.1875 6.04167 12.0504 6.04167 11.8828V8.98829V6.09376H9.6875C9.85938 6.09376 10 5.95665 10 5.78908V4.80469C10 4.63711 9.85938 4.5 9.6875 4.5ZM9.6875 2.5H5H0.3125C0.140625 2.5 0 2.63711 0 2.80469V3.69531C0 3.86289 0.140625 4 0.3125 4H5H9.6875C9.85938 4 10 3.86289 10 3.69531V2.80469C10 2.63711 9.85938 2.5 9.6875 2.5Z" fill="black"/>
</svg>
