<?xml version="1.0" ?><!DOCTYPE svg  PUBLIC '-//W3C//DTD SVG 1.1//EN'  'http://www.w3.org/Graphics/SVG/1.1/DTD/svg11.dtd'><svg enable-background="new 0 0 100 100" height="100px" id="Layer_1" version="1.1" viewBox="0 0 100 100" width="100px" xml:space="preserve" xmlns="http://www.w3.org/2000/svg" xmlns:xlink="http://www.w3.org/1999/xlink"><g><path d="M49.15,95.868c25.353,0,45.978-20.625,45.978-45.978S74.503,3.913,49.15,3.913S3.173,24.539,3.173,49.891   S23.798,95.868,49.15,95.868z M49.15,5.913c24.249,0,43.978,19.728,43.978,43.978S73.399,93.868,49.15,93.868   S5.173,74.14,5.173,49.891S24.901,5.913,49.15,5.913z"/><path d="M26.237,64.711c4.391,2.817,9.469,4.307,14.686,4.307c9.728,0,15.99-4.415,19.53-8.118   c5.027-5.258,7.889-12.639,7.716-19.842c1.721-1.313,3.205-2.896,4.418-4.713c0.247-0.37,0.22-0.859-0.067-1.199   c-0.286-0.34-0.762-0.45-1.17-0.27c-0.467,0.207-0.942,0.394-1.425,0.559c0.671-0.899,1.193-1.908,1.541-2.992   c0.127-0.396-0.004-0.828-0.329-1.087c-0.324-0.259-0.774-0.291-1.133-0.079c-1.571,0.931-3.26,1.605-5.026,2.009   c-1.894-1.801-4.436-2.823-7.06-2.823c-3.137,0-6.056,1.41-8.007,3.868c-1.676,2.11-2.439,4.738-2.176,7.372   c-6.642-0.666-12.801-3.968-17.052-9.182c-0.208-0.254-0.527-0.388-0.854-0.365c-0.327,0.026-0.621,0.21-0.786,0.494   c-2.061,3.536-1.756,7.845,0.475,11.027c-0.152-0.073-0.302-0.15-0.449-0.231c-0.306-0.17-0.679-0.168-0.982,0.006   c-0.304,0.174-0.494,0.494-0.503,0.844c-0.079,3.32,1.56,6.421,4.145,8.35c-0.251,0.022-0.488,0.139-0.66,0.333   c-0.233,0.264-0.311,0.632-0.203,0.968c1.059,3.301,3.686,5.778,6.907,6.706c-3.249,1.885-7.062,2.676-10.878,2.225   c-0.451-0.05-0.901,0.217-1.059,0.656S25.846,64.459,26.237,64.711z M41.056,60.836c0.334-0.261,0.467-0.703,0.332-1.104   s-0.507-0.675-0.93-0.683c-2.98-0.054-5.65-1.706-7.054-4.244c0.966,0.018,1.919-0.106,2.845-0.359   c0.447-0.123,0.752-0.536,0.735-1c-0.016-0.463-0.348-0.854-0.803-0.946c-3.325-0.667-5.893-3.37-6.476-6.591   c0.974,0.338,1.997,0.529,3.026,0.561c0.49,0.017,0.848-0.27,0.983-0.694c0.137-0.425-0.025-0.889-0.396-1.137   c-3.202-2.14-4.444-6.175-3.164-9.674c4.828,5.273,11.567,8.468,18.723,8.826c0.308,0.017,0.616-0.117,0.817-0.357   s0.277-0.562,0.206-0.868c-0.572-2.462,0.002-5.011,1.576-6.994c1.569-1.978,3.917-3.111,6.44-3.111   c2.266,0,4.455,0.947,6.005,2.599c0.236,0.251,0.583,0.361,0.923,0.297c1.156-0.228,2.283-0.558,3.374-0.988   c-0.622,0.799-1.392,1.484-2.278,2.016c-0.404,0.243-0.584,0.735-0.432,1.181c0.153,0.447,0.603,0.725,1.065,0.669   c0.753-0.09,1.497-0.223,2.229-0.398c-0.689,0.7-1.437,1.34-2.238,1.918c-0.273,0.197-0.429,0.519-0.414,0.856   c0.308,6.836-2.363,13.904-7.145,18.905c-3.271,3.421-9.063,7.5-18.085,7.5c-3.494,0-6.92-0.721-10.087-2.106   C34.542,64.556,38.115,63.141,41.056,60.836z"/></g></svg>